# xmcd
#
# Track frame offsets:
#	150
#	16436
#	32276
#	48235
#	69780
#	83396
#	99124
#	115863
#	132474
#	144048
#	161371
#	179912
#	197007
#	210854
#	226233
#	240217
#	256225
#	270705
#	294007
#	311042
#
# Disc length: 4473 seconds
#
# Revision: 0
# Processed by: cddbd v1.5.2PL0 Copyright (c) Steve Scherf et al.
# Submitted via: EasyCDDAExtractor 12.0.1.1
#
DISCID=f1117714
DTITLE=Emmylou Harris - The Very Best Of Emmylou Harris - Heartaches and Highway
DTITLE=s
DYEAR=2005
DGENRE=Country
TTITLE0=Love Hurts (With Gram Parsons)
TTITLE1=Boulder To Birmingham
TTITLE2=Making Believe
TTITLE3=Pancho And Lefty
TTITLE4=One Of These Days
TTITLE5=(Lost His Love) On Our Last Date (Live)
TTITLE6=Born To Run
TTITLE7=Beneath Still Waters
TTITLE8=If I Could Only Win Your Love
TTITLE9=Together Again
TTITLE10=That Lovin' You Feelin' Again (With Roy Orbison)
TTITLE11=To Know Him Is To Love Him (With Dolly Parton and Linda Ronstadt)
TTITLE12=Two More Bottles Of Wine
TTITLE13=Wayfaring Stranger
TTITLE14=Calling My Children Home
TTITLE15=Green Pastures
TTITLE16=Orphan Girl
TTITLE17=Michaelangelo
TTITLE18=Here I Am
TTITLE19=The Connection
EXTD=
EXTT0=
EXTT1=
EXTT2=
EXTT3=
EXTT4=
EXTT5=
EXTT6=
EXTT7=
EXTT8=
EXTT9=
EXTT10=
EXTT11=
EXTT12=
EXTT13=
EXTT14=
EXTT15=
EXTT16=
EXTT17=
EXTT18=
EXTT19=
PLAYORDER=
